<svg xmlns="http://www.w3.org/2000/svg" xmlns:xlink="http://www.w3.org/1999/xlink" width="500" zoomAndPan="magnify" viewBox="0 0 375 374.999991" height="500" preserveAspectRatio="xMidYMid meet" version="1.0"><defs><clipPath id="6ffeccbae7"><path d="M 131.789062 115 L 234.539062 115 L 234.539062 257.421875 L 131.789062 257.421875 Z M 131.789062 115 " clip-rule="nonzero"/></clipPath></defs><path fill="#5b98ba" d="M 255.230469 250.855469 L 213.191406 166.246094 C 200.8125 177.324219 189.921875 196.761719 190.527344 212.6875 L 203.246094 237.785156 C 203.703125 238.6875 204.484375 239.382812 205.429688 239.734375 L 250.234375 256.410156 C 253.644531 257.683594 256.851562 254.117188 255.230469 250.855469 Z M 179.789062 204.617188 C 179.679688 204.777344 179.582031 204.945312 179.492188 205.125 L 163.53125 237.492188 C 163.078125 238.414062 162.289062 239.125 161.332031 239.484375 L 115.703125 256.464844 C 112.308594 257.730469 109.109375 254.210938 110.683594 250.949219 L 178.414062 110.816406 C 179.871094 107.808594 184.144531 107.785156 185.628906 110.777344 L 211.753906 163.355469 C 197.429688 173.601562 186.210938 187.921875 179.789062 204.617188 " fill-opacity="1" fill-rule="nonzero"/><g clip-path="url(#6ffeccbae7)"><path fill="#a6a6a6" d="M 233.035156 213.117188 C 231.96875 209.335938 229.917969 205.480469 226.945312 201.671875 C 223.742188 197.5625 219.347656 193.257812 213.890625 188.875 C 208.289062 184.378906 201.160156 179.625 192.707031 174.75 C 183.019531 169.144531 175.175781 164.210938 169.390625 160.082031 C 163.253906 155.710938 158.644531 151.710938 155.304688 147.855469 C 151.640625 143.636719 149.246094 139.394531 148.191406 135.253906 C 147.226562 131.472656 146.890625 127.410156 147.199219 123.183594 C 147.378906 120.71875 147.953125 118.304688 148.914062 115.96875 C 149.148438 115.394531 148.382812 114.941406 147.988281 115.421875 C 146.21875 117.59375 144.667969 119.976562 143.355469 122.542969 C 140.851562 127.4375 139.363281 132.898438 138.9375 138.78125 C 138.589844 143.5625 138.761719 147.859375 139.445312 151.550781 C 140.046875 154.804688 141.507812 158.082031 143.800781 161.292969 C 146.308594 164.824219 149.996094 168.523438 154.769531 172.300781 C 159.808594 176.289062 166.652344 180.789062 175.113281 185.679688 L 175.179688 185.714844 C 184.105469 191 191.515625 195.714844 197.207031 199.734375 C 203.269531 204.023438 207.914062 207.988281 211.410156 211.859375 C 215.253906 216.121094 217.863281 220.585938 219.160156 225.128906 C 220.382812 229.421875 220.816406 234.136719 220.453125 239.152344 C 220.117188 243.761719 218.855469 248.074219 216.710938 251.972656 C 215.914062 253.417969 215.011719 254.785156 214.011719 256.074219 C 213.570312 256.644531 214.261719 257.394531 214.863281 257 C 215.527344 256.566406 216.183594 256.121094 216.824219 255.65625 C 221.617188 252.207031 225.667969 247.804688 228.863281 242.570312 C 232.003906 237.4375 233.761719 231.71875 234.246094 225.089844 C 234.539062 221.046875 234.132812 217.019531 233.035156 213.117188 Z M 154.191406 255.324219 C 151.28125 253.550781 148.496094 251.488281 145.867188 249.152344 C 140.515625 244.410156 135.78125 238.382812 131.792969 231.242188 L 132.3125 254.410156 C 132.359375 254.386719 132.40625 254.363281 132.457031 254.34375 C 134.488281 253.4375 136.390625 253.179688 137.773438 253.152344 C 139.589844 253.109375 141.5625 253.269531 143.636719 253.621094 C 145.476562 253.929688 147.585938 254.402344 149.914062 255.027344 C 151.253906 255.390625 152.578125 255.730469 153.886719 256.050781 C 154.332031 256.15625 154.585938 255.5625 154.191406 255.324219 Z M 215.910156 115.21875 C 218.890625 116.121094 220.894531 116.5625 222.457031 116.675781 C 225.25 116.878906 227.75 116.496094 229.917969 115.542969 L 228.523438 134.765625 C 228.472656 134.644531 228.425781 134.527344 228.375 134.40625 C 225.527344 127.484375 222.007812 121.722656 217.921875 117.269531 C 217.269531 116.558594 216.597656 115.875 215.910156 115.21875 " fill-opacity="1" fill-rule="nonzero"/></g></svg>